<svg xmlns="http://www.w3.org/2000/svg" viewBox="0 0 100 100" role="img" aria-label="MennaCare AI logo">
  <path d="M 6,14 H 26 L 50,52 L 74,14 H 94 V 92 H 74 V 44 L 56,72 H 44 L 26,44 V 92 H 6 Z"
        fill="#2dd4bf"/>
  <g stroke="#1e40af" stroke-width="3.5" fill="none" stroke-linecap="round" stroke-linejoin="round">
    <path d="M 36,8 C 33,20 41,28 50,32"/>
    <path d="M 64,8 C 67,20 59,28 50,32"/>
    <path d="M 50,32 C 50,52 55,64 65,72 C 73,79 80,81 84,82"/>
  </g>
  <circle cx="36" cy="8" r="3.5" fill="#1e40af"/>
  <circle cx="64" cy="8" r="3.5" fill="#1e40af"/>
  <circle cx="86" cy="84" r="7" fill="#1e40af"/>
  <circle cx="86" cy="84" r="4" fill="#2dd4bf"/>
</svg>
